<?xml version="1.0" encoding="UTF-8" standalone="no"?>
<!-- Created with Inkscape (http://www.inkscape.org/) -->

<svg
   xmlns:dc="http://purl.org/dc/elements/1.1/"
   xmlns:cc="http://creativecommons.org/ns#"
   xmlns:rdf="http://www.w3.org/1999/02/22-rdf-syntax-ns#"
   xmlns:svg="http://www.w3.org/2000/svg"
   xmlns="http://www.w3.org/2000/svg"
   xmlns:sodipodi="http://sodipodi.sourceforge.net/DTD/sodipodi-0.dtd"
   xmlns:inkscape="http://www.inkscape.org/namespaces/inkscape"
   width="744.09448819"
   height="1052.3622047"
   id="svg2"
   version="1.1"
   inkscape:version="0.48.4 r9939"
   sodipodi:docname="hybrid_model_principle.eps">
  <defs
     id="defs4" />
  <sodipodi:namedview
     id="base"
     pagecolor="#ffffff"
     bordercolor="#666666"
     borderopacity="1.0"
     inkscape:pageopacity="0.0"
     inkscape:pageshadow="2"
     inkscape:zoom="0.7"
     inkscape:cx="374.51422"
     inkscape:cy="740.13054"
     inkscape:document-units="px"
     inkscape:current-layer="layer1"
     showgrid="false"
     inkscape:window-width="1301"
     inkscape:window-height="744"
     inkscape:window-x="65"
     inkscape:window-y="24"
     inkscape:window-maximized="1" />
  <metadata
     id="metadata7">
    <rdf:RDF>
      <cc:Work
         rdf:about="">
        <dc:format>image/svg+xml</dc:format>
        <dc:type
           rdf:resource="http://purl.org/dc/dcmitype/StillImage" />
        <dc:title></dc:title>
      </cc:Work>
    </rdf:RDF>
  </metadata>
  <g
     inkscape:label="Layer 1"
     inkscape:groupmode="layer"
     id="layer1">
    <rect
       style="fill:#f9f9f9;fill-rule:evenodd;stroke:#000000;stroke-width:1px;stroke-linecap:butt;stroke-linejoin:miter;stroke-opacity:1"
       id="rect2985"
       width="457.14285"
       height="380"
       x="155.71428"
       y="116.6479" />
    <rect
       style="fill:#f9f9f9"
       id="rect2987"
       width="214.28572"
       height="94.285713"
       x="197.14285"
       y="349.50504" />
    <rect
       style="fill:#808080"
       id="rect2995"
       width="222.85715"
       height="120"
       x="220"
       y="318.07645" />
    <path
       style="fill:none;stroke:#000000;stroke-width:1px;stroke-linecap:butt;stroke-linejoin:miter;stroke-opacity:1"
       d="M 151.42857,100.93361 150,503.79075 l 498.57143,1.42858 -1.42857,-1.42858"
       id="path2997"
       inkscape:connector-curvature="0" />
    <flowRoot
       xml:space="preserve"
       id="flowRoot2999"
       style="font-size:40px;font-style:normal;font-weight:normal;line-height:121.0000515%;letter-spacing:0px;word-spacing:0px;fill:#000000;fill-opacity:1;stroke:none;font-family:Sans"
       transform="translate(62.857143,52.857143)"><flowRegion
         id="flowRegion3001"><rect
           id="rect3003"
           width="31.428545"
           height="40"
           x="62.857143"
           y="20.933611"
           style="line-height:121.0000515%"
           ry="15.714272" /></flowRegion><flowPara
         id="flowPara3005"
         style="font-size:30px">y</flowPara></flowRoot>    <flowRoot
       xml:space="preserve"
       id="flowRoot3007"
       style="font-size:40px;font-style:normal;font-weight:normal;line-height:125%;letter-spacing:0px;word-spacing:0px;fill:#000000;fill-opacity:1;stroke:none;font-family:Sans"
       transform="translate(-20,4.2857143)"><flowRegion
         id="flowRegion3009"><rect
           id="rect3011"
           width="25.714268"
           height="42.857155"
           x="661.42859"
           y="495.21933" /></flowRegion><flowPara
         id="flowPara3013"
         style="font-size:30px">x</flowPara></flowRoot>    <flowRoot
       xml:space="preserve"
       id="flowRoot3015"
       style="font-size:40px;font-style:normal;font-weight:normal;line-height:125%;letter-spacing:0px;word-spacing:0px;fill:#000000;fill-opacity:1;stroke:none;font-family:Sans"><flowRegion
         id="flowRegion3017"><rect
           id="rect3019"
           width="79.999985"
           height="37.14286"
           x="355.71429"
           y="165.21933" /></flowRegion><flowPara
         id="flowPara3021"
         style="font-size:27px">PDE</flowPara></flowRoot>    <flowRoot
       xml:space="preserve"
       id="flowRoot3023"
       style="font-size:28px;font-style:normal;font-weight:normal;line-height:125%;letter-spacing:0px;word-spacing:0px;fill:#000000;fill-opacity:1;stroke:none;font-family:Sans"><flowRegion
         id="flowRegion3025"><rect
           id="rect3027"
           width="51.428539"
           height="42.857136"
           x="272.85715"
           y="349.50504"
           style="font-size:28px" /></flowRegion><flowPara
         id="flowPara3029">RW</flowPara></flowRoot>    <path
       style="fill:#cccccc"
       d="m 220.51422,377.80307 0,-59.28571 110.71429,0 110.71428,0 0,59.28571 0,59.28572 -110.71428,0 -110.71429,0 0,-59.28572 z m 58.57143,-3.57142 c 0,-5.66999 3.62819,-5.67477 6.85216,-0.009 1.33845,2.35217 3.23713,4.28074 4.21927,4.28571 2.45658,0.0124 2.24137,-1.36898 -1.05577,-6.77668 -1.55695,-2.55361 -2.1974,-4.64289 -1.42323,-4.64289 1.71521,0 1.89224,-8.10327 0.19988,-9.1492 -0.66423,-0.41052 -3.87851,-1.17348 -7.14286,-1.69547 l -5.93516,-0.94907 0,11.61116 c 0,9.36864 0.41385,11.61115 2.14285,11.61115 1.42857,0 2.14286,-1.42857 2.14286,-4.28571 z m 23.51603,-1.10065 c 1.50893,-8.93129 3.15118,-9.90786 4.25732,-2.53162 0.89501,5.96837 3.82443,9.65354 5.96902,7.50894 1.8435,-1.8435 5.88171,-21.08324 4.59239,-21.88009 -1.99744,-1.23448 -2.64396,-0.1896 -4.65637,7.52534 l -1.80157,6.90665 -2.05764,-7.14286 c -2.59261,-8.99993 -5.74831,-9.4498 -7.51576,-1.07143 -1.60554,7.61081 -3.1987,7.7415 -4.44501,0.36463 -0.94171,-5.57392 -2.8817,-8.31753 -4.63882,-6.56041 -0.48182,0.48182 0.25863,5.68905 1.64545,11.57163 2.00035,8.48504 3.06086,10.69558 5.13123,10.69558 1.90493,0 2.8555,-1.45469 3.51976,-5.38636 z"
       id="path3031"
       inkscape:connector-curvature="0" />
    <path
       style="fill:#cccccc"
       d="m 279.08565,362.69833 c 0,-3.66092 4.72833,-3.24562 5.44549,0.47829 0.33014,1.71429 -0.43917,2.4836 -2.4836,2.4836 -2.04443,0 -2.96189,-0.91747 -2.96189,-2.96189 z"
       id="path3033"
       inkscape:connector-curvature="0" />
  </g>
</svg>
